<svg width="23" height="25" viewBox="0 0 23 25" fill="none" xmlns="http://www.w3.org/2000/svg">
<path d="M13.3656 2.07398C13.4089 1.74454 13.3462 1.40985 13.1863 1.11852C13.0265 0.827202 12.778 0.594416 12.4768 0.453977C12.1671 0.308639 11.8169 0.274031 11.4847 0.35594C11.1525 0.437849 10.8585 0.631309 10.6518 0.903977L0.89683 13.4202C0.719775 13.6482 0.607704 13.9199 0.572494 14.2064C0.537284 14.4929 0.580247 14.7836 0.69683 15.0477C0.91183 15.539 1.40933 15.974 2.09183 15.974H10.4443L9.63183 22.9265C9.58846 23.2559 9.65125 23.5906 9.81108 23.8819C9.9709 24.1733 10.2194 24.406 10.5206 24.5465C10.8303 24.6918 11.1805 24.7264 11.5127 24.6445C11.8449 24.5626 12.1389 24.3691 12.3456 24.0965L22.0993 11.5802C22.2764 11.3522 22.3885 11.0806 22.4237 10.794C22.4589 10.5075 22.4159 10.2168 22.2993 9.95273C22.1825 9.67908 21.9882 9.44559 21.7403 9.28101C21.4925 9.11643 21.2019 9.02795 20.9043 9.02648H12.5518L13.3656 2.07398Z" fill="#FBBC05"/>
</svg>
