<svg width="40" height="40" viewBox="0 0 40 40" fill="none" xmlns="http://www.w3.org/2000/svg">
<path d="M29.0932 5L34.9998 5.005L35.0032 10.8767L25.8915 19.9867L30.6048 24.7017L32.9632 22.345L35.3215 24.7017L31.1965 28.8267L35.9098 33.5417L33.5532 35.8983L28.8382 31.1833L24.7148 35.3083L22.3565 32.9517L24.7132 30.5933L19.9982 25.88L15.2848 30.5933L17.6432 32.9517L15.2865 35.3083L11.1615 31.1833L6.44651 35.8983L4.08984 33.5417L8.80484 28.825L4.67984 24.7017L7.03651 22.345L9.39318 24.7L14.1048 19.9867L5.00484 10.8867L4.99818 5L10.9082 5.005L19.9965 14.095L29.0932 5ZM16.4598 22.3433L11.7465 27.0567L12.9265 28.235L17.6382 23.5217L16.4598 22.3433ZM31.6665 8.335H30.4715L22.3548 16.45L23.5315 17.6283L31.6665 9.49667V8.335ZM8.33318 8.335V9.50167L27.0682 28.2367L28.2465 27.0583L9.52484 8.33667L8.33318 8.335Z" fill="white"/>
</svg>
