<svg width="25" height="25" viewBox="0 0 25 25" fill="none" xmlns="http://www.w3.org/2000/svg">
<path d="M19.7598 8.09571C19.7539 3.94141 16.3828 0.580086 12.2285 0.585945C8.07618 0.591805 4.7129 3.9629 4.71876 8.11524C4.72071 9.92579 5.61134 11.5195 6.58204 13.0098C7.60157 14.5742 8.29493 16.0801 9.06446 17.7578C9.51563 18.7441 10.7461 19.1289 11.8203 19.2031C12.8711 19.2734 14.2051 19.1543 15.084 18.4356C16.4609 17.3106 16.4922 15.1582 17.3965 13.7227C18.5039 11.9688 19.7617 10.2695 19.7598 8.09571Z" fill="#FCC21B"/>
<path d="M14.2811 23.4299C14.3964 23.3459 14.4921 23.2483 14.5585 23.1076C14.6386 22.9319 14.6112 22.7658 14.5917 22.5803C14.5761 22.4221 14.5917 22.3537 14.6991 22.2444C14.8202 22.1213 14.9433 22.01 14.9647 21.8283C14.9804 21.6936 14.9511 21.5647 14.9257 21.4358C14.912 21.3889 14.9042 21.3401 14.9042 21.2912C14.9315 21.1877 15.0624 21.1155 15.1347 21.0451C15.3222 20.8635 15.496 20.6115 15.5507 20.3557C15.5858 20.1955 15.578 19.9651 15.4765 19.8303C15.3261 19.6311 15.1249 19.7112 14.9335 19.7971C14.871 19.8244 14.8163 19.8596 14.7538 19.8889C13.5663 20.4651 12.1679 20.4651 10.9081 20.1467C10.5878 20.0666 10.2675 19.969 9.96864 19.8283C9.73231 19.719 9.39833 19.5959 9.23622 19.8889C9.0995 20.135 9.16981 20.4631 9.26942 20.7112C9.32802 20.8557 9.45497 20.9807 9.56044 21.092C9.662 21.1994 9.70692 21.2541 9.67763 21.3908C9.65028 21.5158 9.66981 21.6213 9.68153 21.7483C9.69911 21.9201 9.72255 22.0842 9.83388 22.2229C9.9413 22.3576 10.1015 22.4612 10.1972 22.6037C10.2811 22.7268 10.2792 22.8928 10.328 23.0315C10.41 23.258 10.6073 23.4983 10.8065 23.635C11.0331 23.7893 11.3378 23.7795 11.535 23.9826C11.7948 24.2522 12.1659 24.4475 12.5487 24.424C13.0175 24.3967 13.2694 24.0334 13.6268 23.7873C13.7655 23.6916 13.9393 23.6506 14.0858 23.5608C14.1522 23.5158 14.2186 23.4748 14.2811 23.4299Z" fill="#78A3AD"/>
</svg>
