<svg width="25" height="25" viewBox="0 0 25 25" fill="none" xmlns="http://www.w3.org/2000/svg">
<path d="M12.5007 2.0835C18.2538 2.0835 22.9173 6.74704 22.9173 12.5002C22.9173 18.2533 18.2538 22.9168 12.5007 22.9168C6.74753 22.9168 2.08398 18.2533 2.08398 12.5002C2.08398 6.74704 6.74753 2.0835 12.5007 2.0835ZM12.5007 4.16683C10.2905 4.16683 8.1709 5.0448 6.6081 6.60761C5.04529 8.17041 4.16732 10.29 4.16732 12.5002C4.16732 14.7103 5.04529 16.8299 6.6081 18.3927C8.1709 19.9555 10.2905 20.8335 12.5007 20.8335C14.7108 20.8335 16.8304 19.9555 18.3932 18.3927C19.956 16.8299 20.834 14.7103 20.834 12.5002C20.834 10.29 19.956 8.17041 18.3932 6.60761C16.8304 5.0448 14.7108 4.16683 12.5007 4.16683ZM12.5007 6.25016C12.7558 6.2502 13.002 6.34387 13.1927 6.51341C13.3834 6.68295 13.5052 6.91657 13.535 7.16995L13.5423 7.29183V12.0689L16.3621 14.8887C16.5489 15.0762 16.6574 15.3277 16.6655 15.5922C16.6736 15.8568 16.5806 16.1144 16.4056 16.313C16.2306 16.5115 15.9865 16.6359 15.7231 16.661C15.4596 16.6861 15.1965 16.61 14.9871 16.4481L14.8892 16.3616L11.7642 13.2366C11.6023 13.0746 11.4983 12.8637 11.4684 12.6366L11.459 12.5002V7.29183C11.459 7.01556 11.5687 6.75061 11.7641 6.55526C11.9594 6.35991 12.2244 6.25016 12.5007 6.25016Z" fill="black"/>
</svg>
