<svg width="80" height="80" viewBox="0 0 80 80" fill="none" xmlns="http://www.w3.org/2000/svg">
<path d="M40.0001 53.3334C20.8001 53.3334 17.4001 34.2001 16.8001 19.0201C16.6301 14.8001 16.5467 12.6868 18.1334 10.7368C19.7167 8.78344 21.6134 8.46344 25.4101 7.82344C30.2329 7.03342 35.1131 6.64653 40.0001 6.66677C45.9467 6.66677 50.8434 7.1901 54.5901 7.82344C58.3867 8.46344 60.2834 8.78344 61.8701 10.7368C63.4567 12.6901 63.3701 14.8001 63.2034 19.0201C62.6034 34.2001 59.2034 53.3334 40.0034 53.3334H40.0001Z" stroke="black" stroke-width="3"/>
<path d="M40 53.3335V63.3335" stroke="black" stroke-width="3" stroke-linecap="round"/>
<path d="M51.6663 73.3333H28.333L29.4663 67.68C29.6173 66.9246 30.0253 66.2449 30.6208 65.7563C31.2163 65.2677 31.9627 65.0005 32.733 65H47.2663C48.0366 65.0005 48.783 65.2677 49.3786 65.7563C49.9741 66.2449 50.382 66.9246 50.533 67.68L51.6663 73.3333Z" stroke="black" stroke-width="3" stroke-linecap="round" stroke-linejoin="round"/>
<path d="M63.3332 16.667L66.4965 17.7203C69.7965 18.8203 71.4465 19.3703 72.3898 20.6803C73.3332 21.9903 73.3332 23.7337 73.3332 27.207V27.4503C73.3332 30.317 73.3332 31.7537 72.6432 32.927C71.9532 34.1003 70.6965 34.797 68.1898 36.1937L58.3332 41.667M16.6665 16.667L13.5032 17.7203C10.2032 18.8203 8.55317 19.3703 7.60984 20.6803C6.6665 21.9903 6.6665 23.7337 6.6665 27.207V27.4503C6.6665 30.317 6.6665 31.7537 7.3565 32.927C8.0465 34.1003 9.30317 34.797 11.8098 36.1937L21.6665 41.667M37.1532 20.077C38.4198 17.8003 39.0532 16.667 39.9998 16.667C40.9465 16.667 41.5798 17.8003 42.8465 20.077L43.1732 20.6637C43.5332 21.3103 43.7132 21.6303 43.9932 21.8437C44.2765 22.057 44.6265 22.137 45.3265 22.2937L45.9598 22.4403C48.4198 22.997 49.6498 23.2737 49.9432 24.2137C50.2365 25.1537 49.3965 26.137 47.7198 28.097L47.2865 28.6037C46.8098 29.1603 46.5698 29.437 46.4632 29.7837C46.3565 30.1303 46.3932 30.5003 46.4632 31.2437L46.5298 31.9203C46.7832 34.537 46.9098 35.847 46.1465 36.427C45.3798 37.007 44.2265 36.477 41.9232 35.417L41.3298 35.1437C40.6732 34.8437 40.3465 34.6937 39.9998 34.6937C39.6532 34.6937 39.3265 34.8437 38.6698 35.1437L38.0765 35.417C35.7732 36.4803 34.6198 37.007 33.8532 36.427C33.0865 35.847 33.2165 34.537 33.4698 31.9203L33.5365 31.2437C33.6065 30.5003 33.6432 30.1303 33.5365 29.7837C33.4298 29.437 33.1898 29.1603 32.7132 28.6037L32.2798 28.097C30.6032 26.137 29.7632 25.157 30.0565 24.2137C30.3498 23.2737 31.5798 22.997 34.0398 22.4403L34.6732 22.2937C35.3732 22.137 35.7232 22.0603 36.0065 21.8437C36.2865 21.6303 36.4665 21.3103 36.8265 20.6637L37.1532 20.077Z" stroke="black" stroke-width="3"/>
<path d="M60 73.3335H20" stroke="black" stroke-width="3" stroke-linecap="round"/>
</svg>
