<svg width="20" height="13" viewBox="0 0 20 13" fill="none" xmlns="http://www.w3.org/2000/svg">
<path d="M0.391409 0.446305C0.267338 0.586838 0.168901 0.753785 0.101737 0.937583C0.0345722 1.12138 0 1.31842 0 1.51742C0 1.71641 0.0345722 1.91345 0.101737 2.09725C0.168901 2.28105 0.267338 2.44799 0.391409 2.58852L9.24845 12.6461C9.34705 12.7583 9.46417 12.8473 9.59311 12.908C9.72205 12.9687 9.86027 13 9.99986 13C10.1394 13 10.2777 12.9687 10.4066 12.908C10.5355 12.8473 10.6527 12.7583 10.7513 12.6461L19.6083 2.58852C20.1306 1.99548 20.1306 1.03935 19.6083 0.446305C19.0861 -0.146738 18.244 -0.146738 17.7218 0.446305L9.99453 9.20883L2.26727 0.434204C1.75567 -0.146736 0.903007 -0.146738 0.391409 0.446305Z" fill="black"/>
</svg>
