<svg width="41" height="40" viewBox="0 0 41 40" fill="none" xmlns="http://www.w3.org/2000/svg">
<path d="M40.5 20C40.5 8.9544 31.5456 0 20.5 0C9.4544 0 0.5 8.9544 0.5 20C0.5 29.3792 6.9576 37.2496 15.6688 39.4112V26.112H11.5448V20H15.6688V17.3664C15.6688 10.5592 18.7496 7.404 25.4328 7.404C26.7 7.404 28.8864 7.6528 29.7808 7.9008V13.4408C29.3088 13.3912 28.4888 13.3664 27.4704 13.3664C24.1912 13.3664 22.924 14.6088 22.924 17.8384V20H29.4568L28.3344 26.112H22.924V39.8536C32.8272 38.6576 40.5008 30.2256 40.5008 20H40.5Z" fill="#0866FF"/>
</svg>
