<svg xmlns="http://www.w3.org/2000/svg" viewBox="0 0 235.42 150"><defs><style>.cls-1{fill:#fff;}</style></defs><g id="Layer_2" data-name="Layer 2"><g id="Layer_1-2" data-name="Layer 1"><path class="cls-1" d="M235.39,52.11a39.21,39.21,0,0,0-.76-6.54A41,41,0,0,0,232.74,39c-.13-.34-.27-.68-.41-1a40.89,40.89,0,0,0-2.81-5.52c-.21-.34-.42-.68-.64-1a40.8,40.8,0,0,0-12.06-12.07l-1-.63a40.11,40.11,0,0,0-6.54-3.22,39.65,39.65,0,0,0-6.54-1.89,40.17,40.17,0,0,0-6.53-.77l-.74,0H40.26c-.25,0-.49,0-.74,0h-.28a40.31,40.31,0,0,0-19.62,5.88l-1,.63A41.11,41.11,0,0,0,6.54,31.48c-.22.33-.43.67-.64,1A40.89,40.89,0,0,0,3.09,38l-.4,1A40.14,40.14,0,0,0,0,52.11c0,.49,0,1,0,1.46V76.81c0,.49,0,1,0,1.46A40.49,40.49,0,0,0,5.9,97.89c.21.34.42.68.64,1A41,41,0,0,0,18.6,111c.34.21.68.43,1,.63a40.4,40.4,0,0,0,12,4.89l1.07.22a40.17,40.17,0,0,0,6.54.77c.48,0,1,0,1.46,0H84.85c0,.49,0,1,0,1.48v1.93a29.4,29.4,0,0,0,.17,3.13h0v.32a29.54,29.54,0,0,0,1.11,5.19A29.13,29.13,0,0,0,113.89,150H124a26.22,26.22,0,0,0,25.57-20.44v0a25.89,25.89,0,0,0,.63-5.74V119c0-.49,0-1,0-1.48h44.55q.74,0,1.47,0a40.17,40.17,0,0,0,6.53-.77l1.07-.22a40.4,40.4,0,0,0,12-4.89c.35-.2.69-.42,1-.63a41,41,0,0,0,12.06-12.06c.22-.34.43-.68.64-1a40.06,40.06,0,0,0,5.11-13.08,39.21,39.21,0,0,0,.76-6.54c0-.49,0-1,0-1.46V53.57C235.42,53.08,235.41,52.6,235.39,52.11Zm-13,24.7a27.46,27.46,0,0,1-6.54,17.82,27.8,27.8,0,0,1-3.25,3.26,27.5,27.5,0,0,1-17.83,6.54h-51a6.37,6.37,0,0,0-6.37,6.37v12.43a20.14,20.14,0,0,1-.41,2.89,13.22,13.22,0,0,1-1.13,3.44c-.17.35-.36.69-.56,1a13.28,13.28,0,0,1-4.44,4.44,13,13,0,0,1-6.54,1.89H113.89a16.19,16.19,0,0,1-2.72-.23,15.9,15.9,0,0,1-6.54-2.72,16.41,16.41,0,0,1-3.48-3.38c-.26-.34-.49-.67-.72-1A16,16,0,0,1,98.72,126a13.73,13.73,0,0,1-.63-3.6v-8.84A9.14,9.14,0,0,0,89,104.43H40.7a27.46,27.46,0,0,1-17.82-6.54,27.13,27.13,0,0,1-3.26-3.26,27.46,27.46,0,0,1-6.54-17.82V53.57A27.43,27.43,0,0,1,17.9,38a26.91,26.91,0,0,1,1.72-2.26,27.88,27.88,0,0,1,3.26-3.26A27.46,27.46,0,0,1,40.7,26h154a27.5,27.5,0,0,1,17.83,6.54,28.59,28.59,0,0,1,3.25,3.26A24.93,24.93,0,0,1,217.52,38a27.36,27.36,0,0,1,4.82,15.56Z"/><path class="cls-1" d="M79.52,12.87H70.83c-.11-.21-.22-.43-.35-.63a8.24,8.24,0,0,0-2.8-2.8,8.12,8.12,0,0,0-4.12-1.19H57a9.51,9.51,0,0,0-1.7.15A10.12,10.12,0,0,0,49,12.24c-.16.2-.3.42-.44.63H40.26c-.25,0-.49,0-.74,0A18.35,18.35,0,0,1,57,0H63.4A16.54,16.54,0,0,1,79.52,12.87Z"/><path class="cls-1" d="M196.16,12.88h-8.69c-.11-.21-.22-.43-.35-.63a8.24,8.24,0,0,0-2.8-2.8,8.15,8.15,0,0,0-4.12-1.19h-6.54a9.51,9.51,0,0,0-1.7.15,10.12,10.12,0,0,0-6.33,3.85c-.16.2-.3.42-.44.63h-9A18.35,18.35,0,0,1,173.66,0H180A16.52,16.52,0,0,1,196.16,12.88Z"/></g></g></svg>