<svg width="28" height="31" viewBox="0 0 28 31" fill="none" xmlns="http://www.w3.org/2000/svg">
<path d="M14 5.48L23 10.535V20.465L14 25.52L5.00001 20.465V10.535L14 5.48ZM27.5 22.25C27.5 22.82 27.185 23.315 26.705 23.57L14.855 30.23C14.615 30.41 14.315 30.5 14 30.5C13.685 30.5 13.385 30.41 13.145 30.23L1.29501 23.57C1.05442 23.4438 0.853076 23.2539 0.7129 23.0212C0.572724 22.7884 0.499088 22.5217 0.500009 22.25V8.75C0.500009 8.18 0.815008 7.685 1.29501 7.43L13.145 0.77C13.385 0.59 13.685 0.5 14 0.5C14.315 0.5 14.615 0.59 14.855 0.77L26.705 7.43C27.185 7.685 27.5 8.18 27.5 8.75V22.25ZM14 3.725L3.50001 9.635V21.365L14 27.275L24.5 21.365V9.635L14 3.725Z" fill="#03A9F4"/>
</svg>
