<svg width="31" height="30" viewBox="0 0 31 30" fill="none" xmlns="http://www.w3.org/2000/svg">
<path d="M15.8055 12.2734V18.0826H24.0433C23.6816 19.9507 22.5961 21.5326 20.968 22.5962L25.9357 26.3736C28.8301 23.7555 30.5 19.91 30.5 15.3418C30.5 14.2782 30.4026 13.2553 30.2216 12.2736L15.8055 12.2734Z" fill="#4285F4"/>
<path d="M7.22945 17.855L6.10904 18.6955L2.14313 21.7227C4.66178 26.6181 9.82395 30 15.8075 30C19.9402 30 23.405 28.6636 25.9377 26.3728L20.9699 22.5954C19.6062 23.4954 17.8668 24.041 15.8075 24.041C11.8277 24.041 8.44642 21.4091 7.2357 17.8636L7.22945 17.855Z" fill="#34A853"/>
<path d="M2.14188 8.27783C1.09829 10.2959 0.5 12.5732 0.5 15.0005C0.5 17.4277 1.09829 19.705 2.14188 21.7232C2.14188 21.7367 7.23495 17.8504 7.23495 17.8504C6.92881 16.9504 6.74786 15.9959 6.74786 15.0003C6.74786 14.0047 6.92881 13.0503 7.23495 12.1503L2.14188 8.27783Z" fill="#FBBC05"/>
<path d="M15.8078 5.97274C18.0621 5.97274 20.0658 6.73636 21.6661 8.20912L26.0493 3.9137C23.3915 1.48646 19.9407 0 15.8078 0C9.82427 0 4.66178 3.36819 2.14313 8.27731L7.23604 12.1501C8.44659 8.60455 11.828 5.97274 15.8078 5.97274Z" fill="#EA4335"/>
</svg>
