<svg width="57" height="68" viewBox="0 0 57 68" fill="none" xmlns="http://www.w3.org/2000/svg">
<path d="M31.492 2.53216C31.492 1.30016 32.584 0.344158 33.78 0.640158C35.9216 1.17054 37.9712 2.02004 39.86 3.16016C40.916 3.80016 41.012 5.24416 40.14 6.11616C39.7895 6.44925 39.339 6.65757 38.8581 6.7089C38.3773 6.76024 37.893 6.65173 37.48 6.40016C36.1274 5.62123 34.6793 5.02153 33.172 4.61616C32.7018 4.50192 32.2823 4.23582 31.9786 3.85907C31.6749 3.48232 31.5038 3.01594 31.492 2.53216ZM9.024 25.0002C10.016 25.0002 10.852 25.7202 11.104 26.6802C11.5106 28.1876 12.1117 29.6358 12.892 30.9882C13.1436 31.4011 13.2521 31.8855 13.2007 32.3663C13.1494 32.8471 12.9411 33.2976 12.608 33.6482C11.736 34.5202 10.288 34.4242 9.656 33.3682C8.51449 31.4796 7.66364 29.4299 7.132 27.2882C6.836 26.0882 7.792 25.0002 9.024 25.0002ZM47.336 10.6402C46.696 9.58416 45.256 9.48816 44.38 10.3602C44.0469 10.7107 43.8386 11.1612 43.7873 11.642C43.7359 12.1229 43.8444 12.6072 44.096 13.0202C44.864 14.3562 45.472 15.7962 45.88 17.3202C45.9941 17.7898 46.2596 18.2087 46.6355 18.5124C47.0115 18.816 47.4769 18.9875 47.96 19.0002C49.196 19.0002 50.148 17.9122 49.852 16.7162C49.3216 14.5746 48.4721 12.525 47.332 10.6362M47.96 24.9962C49.192 24.9962 50.144 26.0882 49.852 27.2802C49.3216 29.4217 48.4721 31.4713 47.332 33.3602C46.692 34.4122 45.252 34.5082 44.376 33.6402C44.0429 33.2896 43.8346 32.8391 43.7833 32.3583C43.7319 31.8775 43.8404 31.3931 44.092 30.9802C44.8706 29.6288 45.4703 28.1821 45.876 26.6762C45.9901 26.2066 46.2556 25.7876 46.6315 25.4839C47.0075 25.1803 47.4769 25.0089 47.96 24.9962ZM9.02 19.0002C10.012 19.0002 10.848 18.2802 11.1 17.3202C11.512 15.8002 12.116 14.3522 12.888 13.0122C13.1396 12.5992 13.2481 12.1149 13.1967 11.634C13.1454 11.1532 12.9371 10.7027 12.604 10.3522C11.732 9.48416 10.284 9.58016 9.652 10.6322C8.51012 12.522 7.65926 14.573 7.128 16.7162C6.832 17.9122 7.788 19.0002 9.02 19.0002ZM25.488 2.53216C25.4753 3.01525 25.3039 3.48071 25.0002 3.85665C24.6966 4.2326 24.2776 4.4981 23.808 4.61216C22.3033 5.01945 20.8579 5.62048 19.508 6.40016C19.0946 6.65122 18.61 6.75905 18.1292 6.70699C17.6484 6.65493 17.1981 6.44588 16.848 6.11216C15.976 5.24016 16.072 3.79216 17.128 3.16016C19.0156 2.02041 21.0638 1.17092 23.204 0.640158C24.4 0.344158 25.488 1.30016 25.488 2.53216ZM8.532 40.0002C7.47874 39.9959 6.43501 40.1998 5.46071 40.5999C4.4864 41.0001 3.60071 41.5887 2.85445 42.332C2.10819 43.0753 1.51605 43.9586 1.11201 44.9313C0.707974 45.904 0.499992 46.9469 0.5 48.0002C0.5 54.7642 3.832 59.8642 9.04 63.1882C14.168 66.4562 21.08 68.0002 28.5 68.0002C35.92 68.0002 42.832 66.4562 47.96 63.1882C53.168 59.8682 56.5 54.7602 56.5 48.0002C56.5 45.8784 55.6572 43.8436 54.1569 42.3433C52.6566 40.843 50.6217 40.0002 48.5 40.0002H8.532ZM28.5 34.0002C31.6826 34.0002 34.7349 32.7359 36.9853 30.4854C39.2357 28.235 40.5 25.1828 40.5 22.0002C40.5 18.8176 39.2357 15.7653 36.9853 13.5149C34.7349 11.2644 31.6826 10.0002 28.5 10.0002C25.3174 10.0002 22.2652 11.2644 20.0147 13.5149C17.7643 15.7653 16.5 18.8176 16.5 22.0002C16.5 25.1828 17.7643 28.235 20.0147 30.4854C22.2652 32.7359 25.3174 34.0002 28.5 34.0002Z" fill="#34A853"/>
</svg>
