<svg width="30" height="30" viewBox="0 0 30 30" fill="none" xmlns="http://www.w3.org/2000/svg">
<path d="M10.8842 28.0498C10.6923 27.9689 10.5329 27.8263 10.4311 27.6447C10.3292 27.463 10.2907 27.2527 10.3217 27.0467L12.0279 15.9373H7.49982C7.35627 15.9412 7.21375 15.912 7.08325 15.8521C6.95275 15.7921 6.83778 15.703 6.74718 15.5916C6.65659 15.4802 6.59281 15.3494 6.56076 15.2094C6.52871 15.0694 6.52924 14.924 6.56232 14.7842L9.37482 2.59672C9.42431 2.38697 9.54455 2.20068 9.71531 2.0692C9.88606 1.93772 10.0969 1.86909 10.3123 1.87485H19.6873C19.8274 1.87437 19.9658 1.90528 20.0923 1.96531C20.2189 2.02534 20.3303 2.11295 20.4186 2.22172C20.5081 2.33172 20.5714 2.46058 20.6039 2.59861C20.6364 2.73664 20.6371 2.88024 20.6061 3.0186L18.9842 10.3123H23.4373C23.613 10.312 23.7853 10.361 23.9345 10.4539C24.0837 10.5467 24.2038 10.6796 24.2811 10.8373C24.3483 10.9888 24.3741 11.1553 24.356 11.32C24.3379 11.4847 24.2764 11.6416 24.1779 11.7748L11.9904 27.7123C11.9081 27.8344 11.7981 27.9354 11.6694 28.0071C11.5407 28.0788 11.397 28.1191 11.2498 28.1248C11.1244 28.1223 11.0005 28.0969 10.8842 28.0498ZM16.6404 12.1873L18.5154 3.74985H11.0623L8.68107 14.0623H14.2217L12.7311 23.6998L21.5623 12.1873H16.6404Z" fill="#FBBC05"/>
</svg>
