<svg width="31" height="31" viewBox="0 0 31 31" fill="none" xmlns="http://www.w3.org/2000/svg">
<path d="M17.3675 5.07398C17.4109 4.74454 17.3481 4.40985 17.1883 4.11852C17.0285 3.8272 16.7799 3.59442 16.4788 3.45398C16.1691 3.30864 15.8188 3.27403 15.4866 3.35594C15.1544 3.43785 14.8604 3.63131 14.6538 3.90398L4.89878 16.4202C4.72173 16.6482 4.60966 16.9199 4.57445 17.2064C4.53924 17.4929 4.5822 17.7836 4.69878 18.0477C4.91378 18.539 5.41128 18.974 6.09378 18.974H14.4463L13.6338 25.9265C13.5904 26.2559 13.6532 26.5906 13.813 26.8819C13.9729 27.1733 14.2214 27.406 14.5225 27.5465C14.8323 27.6918 15.1825 27.7264 15.5147 27.6445C15.8469 27.5626 16.1409 27.3691 16.3475 27.0965L26.1013 14.5802C26.2783 14.3522 26.3904 14.0806 26.4256 13.794C26.4608 13.5075 26.4179 13.2168 26.3013 12.9527C26.1845 12.6791 25.9902 12.4456 25.7423 12.281C25.4944 12.1164 25.2038 12.0279 24.9063 12.0265H16.5538L17.3675 5.07398Z" fill="#FBBC05"/>
</svg>
