<svg xmlns="http://www.w3.org/2000/svg" viewBox="0 0 576 367"><defs><style>.cls-1{fill:#fff;}</style></defs><g id="Layer_2" data-name="Layer 2"><g id="Layer_1-2" data-name="Layer 1"><path class="cls-1" d="M137.46,202.08a38.22,38.22,0,0,1-16.09-3.45A43.13,43.13,0,0,1,108,189.14a44.44,44.44,0,0,1-12.35-31A39.84,39.84,0,0,1,99,142a42.5,42.5,0,0,1,9.21-13.29,43.28,43.28,0,0,1,13.59-9,41.81,41.81,0,0,1,16.5-3.26,50.78,50.78,0,0,1,8.19.71,50,50,0,0,1,8.6,2.2,30.58,30.58,0,0,1,7.31,3.62,37.33,37.33,0,0,1,4.57,3.56,6.17,6.17,0,0,1,2.07,4.75,7.73,7.73,0,0,1-.71,3.08,20.37,20.37,0,0,1-2,3.56,17.06,17.06,0,0,1-4.51,4.81,7.82,7.82,0,0,1-4.27,1.49,6.2,6.2,0,0,1-2.67-.65c-.91-.44-2.16-1.13-3.74-2.08a15.51,15.51,0,0,0-2.73-1.25,37.77,37.77,0,0,0-4.81-1.42,25.47,25.47,0,0,0-5.88-.66,20.1,20.1,0,0,0-20.29,20.3,21.1,21.1,0,0,0,2.84,10.75,23.26,23.26,0,0,0,7.54,8,18.35,18.35,0,0,0,10.15,3c1.43,0,2.83,0,4.22-.11a36.81,36.81,0,0,0,4.09-.47,19.62,19.62,0,0,0,3.56-1V168.36H141a18.63,18.63,0,0,1-4-.41,4.76,4.76,0,0,1-3.08-2.32q-1.18-1.89-1.19-6.53c0-3.08.43-5.26,1.3-6.52a5,5,0,0,1,3.33-2.26,22.87,22.87,0,0,1,4-.36h20.78q4.74.14,6.65,1.72a6.53,6.53,0,0,1,2.31,3.86,26,26,0,0,1,.42,4.75v24.34a10.92,10.92,0,0,1-2.85,6.82,23.67,23.67,0,0,1-7.72,6,33.72,33.72,0,0,1-6.64,2.55,56.7,56.7,0,0,1-7.9,1.54A70.62,70.62,0,0,1,137.46,202.08Z"/><path class="cls-1" d="M210.64,202.08a53.66,53.66,0,0,1-9.76-1,60.4,60.4,0,0,1-10.46-3,30.75,30.75,0,0,1-8.35-4.6,7.73,7.73,0,0,1-3.28-6.1,10.48,10.48,0,0,1,.7-3.51,32.87,32.87,0,0,1,1.95-4.3,48.12,48.12,0,0,1,3.12-5,7.32,7.32,0,0,1,2.58-2.34,7.45,7.45,0,0,1,3.51-.78,13.46,13.46,0,0,1,5.47,1.17c1.77.78,3.53,1.67,5.3,2.66A53.45,53.45,0,0,0,207,178a16.27,16.27,0,0,0,6.16,1.17,12,12,0,0,0,4.46-.63,2,2,0,0,0,1.48-1.87,2.46,2.46,0,0,0-1-2,9,9,0,0,0-2.82-1.33c-1.19-.36-2.57-.7-4.13-1s-3.23-.68-5-1.1-3.59-.93-5.47-1.55a41.54,41.54,0,0,1-7-2.89,22.27,22.27,0,0,1-10.54-11.95,28.34,28.34,0,0,1-1.64-10.3q0-8.11,3.75-13.58a22.77,22.77,0,0,1,11.08-8.28q7.33-2.82,18.11-2.81a45.32,45.32,0,0,1,5.32.31,53.2,53.2,0,0,1,5.38.93,46,46,0,0,1,5.47,1.64q2.72,1,5.54,2.27,5.78,2.51,5.93,7t-3.28,9.29a17,17,0,0,1-3.82,4.45,6.52,6.52,0,0,1-4,1.48,12.86,12.86,0,0,1-5.46-1.41q-3-1.4-6.24-2.8a16.53,16.53,0,0,0-6.56-1.41,11.43,11.43,0,0,0-3.2.39,4.1,4.1,0,0,0-1.95,1.09,2.39,2.39,0,0,0-.63,1.64,3.41,3.41,0,0,0,1.17,2.73,8.82,8.82,0,0,0,3.12,1.65,39.34,39.34,0,0,0,4.53,1.09q2.58.47,5.54.93a58.42,58.42,0,0,1,8.36,2,28.36,28.36,0,0,1,7.88,3.82,18,18,0,0,1,5.78,6.87c1.46,2.92,2.19,6.71,2.19,11.4q0,13.26-8.83,20.14T210.64,202.08Z"/><path class="cls-1" d="M310.88,144.59c0,3.64-.65,6.26-2.09,7.85a9.41,9.41,0,0,1-5.33,3.07,31,31,0,0,1-6.77.69l-4.55-.12v.46l.91,33.81a20.27,20.27,0,0,1-.52,5.58c-.26.57-.39,1-.65,1.48a4.57,4.57,0,0,1-.91,1.25,9.74,9.74,0,0,1-2.08,1.71c-1.95,1.14-5.21,1.71-9.89,1.71h-1.17c-4-.12-6.9-.68-8.72-1.6a6.6,6.6,0,0,1-3.64-4.09,24.47,24.47,0,0,1-.65-5.47V155.74h-8.33c-3.64-.11-6-1-7.42-2.73s-1.95-4.55-1.95-8.54c0-3.64.78-6.49,2.47-8.31s4.17-2.73,7.55-2.73h7.68V122.16a24.47,24.47,0,0,1,.65-5.47c.39-1.59,1.56-3,3.64-4.1,1.82-.91,4.68-1.48,8.72-1.59H279c4.68,0,7.94.57,9.89,1.71a9.74,9.74,0,0,1,2.08,1.71,4.57,4.57,0,0,1,.91,1.25c.26.45.39.91.65,1.48a20.27,20.27,0,0,1,.52,5.58l-.26,10.13,4.16-.12a40.62,40.62,0,0,1,6.51.57,8.24,8.24,0,0,1,5.33,3C310.23,137.87,310.88,140.6,310.88,144.59Z"/><path class="cls-1" d="M359.74,202.08c-7.8,0-14.42-1.28-19.82-3.83a36.59,36.59,0,0,1-13.12-10,41.53,41.53,0,0,1-7.34-13.35,44.78,44.78,0,0,1-2.34-13.9,42.29,42.29,0,0,1,5.46-21.7,38.75,38.75,0,0,1,15.15-14.68,45.43,45.43,0,0,1,22.17-5.31,39.67,39.67,0,0,1,16.55,3.13,32.45,32.45,0,0,1,17.49,18.26,29.42,29.42,0,0,1,2,10.16q0,8.88-4.38,13.58a14.68,14.68,0,0,1-11.24,4.68H347.09a8.6,8.6,0,0,0,2.58,4.3,13.67,13.67,0,0,0,4.92,2.8,19.56,19.56,0,0,0,6.4,1,42.3,42.3,0,0,0,6.09-.39,30,30,0,0,0,4.61-1c1.3-.42,2.49-.84,3.59-1.26s2.08-.75,3-1a9.13,9.13,0,0,1,2.58-.39,8.08,8.08,0,0,1,5.16,1.87,16.62,16.62,0,0,1,4.21,5.63,17.29,17.29,0,0,1,1.56,3.82,13.5,13.5,0,0,1,.47,3.36,9.69,9.69,0,0,1-3.82,7.8q-3.84,3.14-11,4.76A80.32,80.32,0,0,1,359.74,202.08Zm-12.65-47.62h17.49a4.66,4.66,0,0,0,3.21-.94,3.67,3.67,0,0,0,1-2.81,5.2,5.2,0,0,0-1.17-3.44,7,7,0,0,0-3.2-2.1,14.85,14.85,0,0,0-4.85-.71,13.94,13.94,0,0,0-6.55,1.48,11.27,11.27,0,0,0-4.3,3.75A9.75,9.75,0,0,0,347.09,154.46Z"/><path class="cls-1" d="M443.27,202.08c-7.8,0-14.42-1.28-19.82-3.83a36.59,36.59,0,0,1-13.12-10A41.53,41.53,0,0,1,403,174.91a44.78,44.78,0,0,1-2.34-13.9,42.2,42.2,0,0,1,5.47-21.7,38.72,38.72,0,0,1,15.14-14.68,45.43,45.43,0,0,1,22.17-5.31A39.67,39.67,0,0,1,460,122.45a32.37,32.37,0,0,1,17.49,18.26,29.42,29.42,0,0,1,2,10.16q0,8.88-4.38,13.58a14.68,14.68,0,0,1-11.24,4.68H430.63a8.51,8.51,0,0,0,2.57,4.3,13.67,13.67,0,0,0,4.92,2.8,19.56,19.56,0,0,0,6.4,1,42.3,42.3,0,0,0,6.09-.39,30,30,0,0,0,4.61-1c1.3-.42,2.5-.84,3.59-1.26s2.08-.75,3-1a9.19,9.19,0,0,1,2.58-.39,8.08,8.08,0,0,1,5.16,1.87,16.62,16.62,0,0,1,4.21,5.63,17.29,17.29,0,0,1,1.56,3.82,13.5,13.5,0,0,1,.47,3.36,9.69,9.69,0,0,1-3.82,7.8q-3.84,3.14-11,4.76A80.32,80.32,0,0,1,443.27,202.08Zm-12.64-47.62h17.49a4.65,4.65,0,0,0,3.2-.94,3.67,3.67,0,0,0,1-2.81,5.2,5.2,0,0,0-1.17-3.44,7,7,0,0,0-3.2-2.1,14.83,14.83,0,0,0-4.84-.71,14,14,0,0,0-6.56,1.48,11.42,11.42,0,0,0-4.3,3.75A9.64,9.64,0,0,0,430.63,154.46Z"/><path class="cls-1" d="M335.81,287.5l-.31,11.08M99.58,31.5c-1,0-1.93,0-2.89.05.61,0,1.21,0,1.82,0h20.26s0,0,0,0Zm73.72,0s0,0,0,0h21.24v0Zm208.79,0v0h22.07s0,0,0,0Zm94.33,0H458.68s0,0,0,0h19.52C477.62,31.5,477,31.5,476.42,31.5Z"/><path class="cls-1" d="M575.93,127.5a99.2,99.2,0,0,0-6.5-32c-.32-.84-.66-1.67-1-2.5a98.38,98.38,0,0,0-6.87-13.5Q560.79,78.24,560,77A100.38,100.38,0,0,0,530.49,47.5q-1.23-.8-2.49-1.56a98.92,98.92,0,0,0-48-14.37c-.6,0-1.19,0-1.79-.05H458.69s0,0,0,0H404.16s0,0,0,0H382.08v0H194.55v0H173.31s0,0,0,0H118.78s0,0,0,0H98.51c-.61,0-1.21,0-1.82,0l-.69,0A98.66,98.66,0,0,0,48,45.94q-1.26.77-2.49,1.56A100.38,100.38,0,0,0,16,77q-.79,1.23-1.56,2.49A98.38,98.38,0,0,0,7.57,93c-.34.83-.68,1.66-1,2.5a99.2,99.2,0,0,0-6.5,32c0,1.19-.07,2.38-.07,3.58v56.84c0,1.2,0,2.39.07,3.58a98.66,98.66,0,0,0,14.37,48Q15.2,240.76,16,242A100,100,0,0,0,45.51,271.5q1.23.79,2.49,1.56A98.31,98.31,0,0,0,77.39,285c.87.2,1.74.39,2.61.56a98.1,98.1,0,0,0,16,1.87c1.19.05,2.38.07,3.58.07h108c-.06,1.21-.09,2.42-.09,3.64v4.72a68.91,68.91,0,0,0,.42,7.64H208v.79A70.37,70.37,0,0,0,210.71,317a71.25,71.25,0,0,0,67.93,50h24.75a64.12,64.12,0,0,0,62.55-50,.64.64,0,0,0,0-.07,64.33,64.33,0,0,0,1.54-14V291.14c0-1.22,0-2.43-.09-3.64h109c1.2,0,2.39,0,3.58-.07a98.1,98.1,0,0,0,16-1.87c.87-.17,1.74-.36,2.61-.56A98.31,98.31,0,0,0,528,273.06q1.26-.76,2.49-1.56A100,100,0,0,0,560,242q.79-1.23,1.56-2.49a98.92,98.92,0,0,0,14.37-48c.05-1.19.07-2.38.07-3.58V131.08C576,129.88,576,128.69,575.93,127.5ZM544,187.92a67.24,67.24,0,0,1-16,43.61,68.17,68.17,0,0,1-8,8,67.24,67.24,0,0,1-43.61,16H351.59A15.59,15.59,0,0,0,336,271.09V301.5a50.59,50.59,0,0,1-1,7.08,33.62,33.62,0,0,1-2.76,8.42c-.42.85-.88,1.69-1.37,2.5A32.29,32.29,0,0,1,320,330.37,31.81,31.81,0,0,1,304,335H278.64a38.31,38.31,0,0,1-6.64-.57,38.81,38.81,0,0,1-16-6.66,39.59,39.59,0,0,1-8.53-8.27c-.62-.81-1.2-1.64-1.75-2.5a38.06,38.06,0,0,1-4.18-8.69A33.47,33.47,0,0,1,240,299.5V277.86a22.36,22.36,0,0,0-22.36-22.36H99.58A67.24,67.24,0,0,1,56,239.5a68.17,68.17,0,0,1-8-8,67.24,67.24,0,0,1-16-43.61V131.08A67.65,67.65,0,0,1,48,87.47a68.17,68.17,0,0,1,8-8,67.24,67.24,0,0,1,43.61-16H476.42A67.24,67.24,0,0,1,520,79.5a68.17,68.17,0,0,1,8,8,67.65,67.65,0,0,1,16,43.61Z"/><path class="cls-1" d="M194.55,31.5v0H173.31s0,0,0,0c-.26-.53-.54-1.06-.85-1.56a20.49,20.49,0,0,0-6.85-6.85,20,20,0,0,0-10.09-2.91h-16a24.07,24.07,0,0,0-4.18.36,24.45,24.45,0,0,0-10.09,4.2,25.08,25.08,0,0,0-5.38,5.21c-.39.5-.74,1-1.09,1.56,0,0,0,0,0,0H98.51c-.61,0-1.21,0-1.82,0A44.92,44.92,0,0,1,139.52,0h15.61A40.42,40.42,0,0,1,194.55,31.5Z"/><path class="cls-1" d="M479.93,31.52H458.69s0,0,0,0c-.27-.53-.55-1.06-.85-1.56A20.43,20.43,0,0,0,451,23.09a20,20,0,0,0-10.08-2.91h-16a24.07,24.07,0,0,0-4.18.36,24.45,24.45,0,0,0-10.09,4.2,25.08,25.08,0,0,0-5.38,5.21c-.39.5-.74,1-1.09,1.56,0,0,0,0,0,0H382.08v0A44.92,44.92,0,0,1,424.9,0h15.6A40.41,40.41,0,0,1,479.93,31.52Z"/><path class="cls-1" d="M38.89,338.19a9.53,9.53,0,0,1-4.66-1.05,6.83,6.83,0,0,1-2.87-3,10.38,10.38,0,0,1-1-4.64,10.72,10.72,0,0,1,.57-3.61,7.64,7.64,0,0,1,1.63-2.73,7,7,0,0,1,2.61-1.74,9.73,9.73,0,0,1,3.52-.6,10.83,10.83,0,0,1,2.83.37,7.68,7.68,0,0,1,2.55,1.21,1.12,1.12,0,0,1,.43.55,1.16,1.16,0,0,1,0,.64,1.35,1.35,0,0,1-.31.56.93.93,0,0,1-.55.29,1.05,1.05,0,0,1-.71-.19,6.88,6.88,0,0,0-2-.95,8.17,8.17,0,0,0-2.28-.3,6.09,6.09,0,0,0-3.16.77A4.78,4.78,0,0,0,33.63,326a8.63,8.63,0,0,0-.65,3.51,7,7,0,0,0,1.52,4.85A5.73,5.73,0,0,0,39,336a10.83,10.83,0,0,0,2.13-.21,11.21,11.21,0,0,0,2-.58l-.5,1.24v-5.59h-3.1a1,1,0,0,1-.75-.25.89.89,0,0,1-.28-.71.81.81,0,0,1,.28-.68,1.14,1.14,0,0,1,.75-.23h4.15a.93.93,0,0,1,1,1v6.05a1.61,1.61,0,0,1-.16.73,1,1,0,0,1-.52.45,12.9,12.9,0,0,1-2.42.66A16,16,0,0,1,38.89,338.19Z"/><path class="cls-1" d="M51.78,338.14a1.21,1.21,0,0,1-.77-.22.81.81,0,0,1-.34-.57,1.61,1.61,0,0,1,.15-.82l6.5-14.59a1.74,1.74,0,0,1,.61-.82,1.52,1.52,0,0,1,.83-.24,1.42,1.42,0,0,1,.8.24,1.75,1.75,0,0,1,.62.82l6.5,14.59a1.57,1.57,0,0,1,.17.83.85.85,0,0,1-.31.58,1.26,1.26,0,0,1-.75.2,1.3,1.3,0,0,1-.84-.26,2.21,2.21,0,0,1-.55-.82l-1.68-3.89,1.13.67H53.62l1.11-.67-1.66,3.89a2.2,2.2,0,0,1-.53.83A1.09,1.09,0,0,1,51.78,338.14Zm6.93-14.33-3.62,8.59-.6-.57H63l-.55.57-3.65-8.59Z"/><path class="cls-1" d="M74.1,338.14a1.13,1.13,0,0,1-.86-.31,1.21,1.21,0,0,1-.3-.87v-14.9a1.17,1.17,0,0,1,.32-.88,1.14,1.14,0,0,1,.84-.3,1.45,1.45,0,0,1,.78.18,1.75,1.75,0,0,1,.51.64l6.29,11.74h-.74L87.2,321.7a1.85,1.85,0,0,1,.5-.64,1.39,1.39,0,0,1,.77-.18,1.09,1.09,0,0,1,.82.3,1.24,1.24,0,0,1,.29.88V337a1.3,1.3,0,0,1-.28.87,1,1,0,0,1-.83.31,1.07,1.07,0,0,1-.84-.31,1.25,1.25,0,0,1-.29-.87V324.58h.53l-5.57,10.3a1.51,1.51,0,0,1-.4.52.93.93,0,0,1-.6.17,1,1,0,0,1-.63-.18,1.71,1.71,0,0,1-.43-.51l-5.62-10.32h.58V337a1.25,1.25,0,0,1-.28.87A1,1,0,0,1,74.1,338.14Z"/><path class="cls-1" d="M98.17,338.14a1.22,1.22,0,0,1-.93-.34,1.3,1.3,0,0,1-.32-.93V322.16a1.3,1.3,0,0,1,.32-1,1.26,1.26,0,0,1,.93-.33,1.22,1.22,0,0,1,.92.33,1.26,1.26,0,0,1,.33,1v14.71a1.3,1.3,0,0,1-.32.93A1.18,1.18,0,0,1,98.17,338.14Z"/><path class="cls-1" d="M108,338.14a1.2,1.2,0,0,1-1.32-1.32V322.4a1.22,1.22,0,0,1,1.35-1.35h8.54a1.11,1.11,0,0,1,.78.25,1,1,0,0,1,.25.74,1,1,0,0,1-.25.76,1,1,0,0,1-.78.27h-7.39v5.4h6.91a1.09,1.09,0,0,1,.76.25,1,1,0,0,1,.27.73,1,1,0,0,1-.27.77,1,1,0,0,1-.76.26h-6.91v6.34C109.21,337.7,108.81,338.14,108,338.14Z"/><path class="cls-1" d="M124.61,338.14a1.2,1.2,0,0,1-.92-.34,1.3,1.3,0,0,1-.32-.93V322.16a1.3,1.3,0,0,1,.32-1,1.23,1.23,0,0,1,.92-.33,1.26,1.26,0,0,1,.93.33,1.3,1.3,0,0,1,.32,1v14.71a1.29,1.29,0,0,1-.31.93A1.2,1.2,0,0,1,124.61,338.14Z"/><path class="cls-1" d="M134.5,338a1.22,1.22,0,0,1-1.34-1.34V322.4a1.31,1.31,0,0,1,.35-1,1.34,1.34,0,0,1,1-.35h8.76a1.11,1.11,0,0,1,.77.25,1,1,0,0,1,.26.74,1,1,0,0,1-.26.76,1,1,0,0,1-.77.27h-7.7v5.3h7.17a1,1,0,0,1,.78.27,1,1,0,0,1,.26.74,1,1,0,0,1-.26.76,1.07,1.07,0,0,1-.78.25h-7.17V336h7.7a1,1,0,0,1,.77.26,1.21,1.21,0,0,1,0,1.5,1.07,1.07,0,0,1-.77.25Z"/><path class="cls-1" d="M152,338a1.33,1.33,0,0,1-1-.35,1.34,1.34,0,0,1-.35-1V322.4a1.35,1.35,0,0,1,.35-1,1.37,1.37,0,0,1,1-.35h4.63a9,9,0,0,1,6.44,2.17,8.26,8.26,0,0,1,2.27,6.28,10.62,10.62,0,0,1-.57,3.62,6.92,6.92,0,0,1-1.7,2.66,7.48,7.48,0,0,1-2.72,1.63,11.37,11.37,0,0,1-3.72.56Zm1.15-2.09h3.34a8.62,8.62,0,0,0,2.74-.39,5,5,0,0,0,2-1.19,4.89,4.89,0,0,0,1.18-2,9.46,9.46,0,0,0,.38-2.81,6.53,6.53,0,0,0-1.57-4.78,6.36,6.36,0,0,0-4.69-1.58h-3.34Z"/><path class="cls-1" d="M402.59,338a1.28,1.28,0,0,1-.94-.33,1.3,1.3,0,0,1-.34-.94V322.23a1.28,1.28,0,0,1,.33-1,1.21,1.21,0,0,1,.92-.32,1.25,1.25,0,0,1,.93.32,1.31,1.31,0,0,1,.32,1v13.61h7.44a1.18,1.18,0,0,1,.82.27,1.24,1.24,0,0,1,0,1.57,1.1,1.1,0,0,1-.82.29Z"/><path class="cls-1" d="M419.75,338a1.31,1.31,0,0,1-1-.35,1.34,1.34,0,0,1-.35-1V322.4a1.22,1.22,0,0,1,1.35-1.35h8.76a1.09,1.09,0,0,1,.76.25,1,1,0,0,1,.27.74.94.94,0,0,1-1,1H420.8v5.3H428a1,1,0,0,1,.78.27,1,1,0,0,1,.25.74,1,1,0,0,1-.25.76,1.11,1.11,0,0,1-.78.25H420.8V336h7.71a1,1,0,0,1,.76.26,1.18,1.18,0,0,1,0,1.5,1,1,0,0,1-.76.25Z"/><path class="cls-1" d="M436.28,338.14a1.23,1.23,0,0,1-.77-.22.8.8,0,0,1-.33-.57,1.6,1.6,0,0,1,.14-.82l6.51-14.59a1.67,1.67,0,0,1,.61-.82,1.49,1.49,0,0,1,.83-.24,1.47,1.47,0,0,1,.8.24,1.74,1.74,0,0,1,.61.82l6.51,14.59a1.46,1.46,0,0,1,.16.83.82.82,0,0,1-.31.58,1.23,1.23,0,0,1-.74.2,1.28,1.28,0,0,1-.84-.26,2.1,2.1,0,0,1-.55-.82l-1.68-3.89,1.12.67H438.13l1.1-.67-1.65,3.89a2.33,2.33,0,0,1-.53.83A1.12,1.12,0,0,1,436.28,338.14Zm6.94-14.33-3.63,8.59-.6-.57h8.48l-.56.57-3.64-8.59Z"/><path class="cls-1" d="M459.13,338.14a1.19,1.19,0,0,1-.92-.34,1.26,1.26,0,0,1-.33-.93V322.32a1.22,1.22,0,0,1,.34-.94,1.26,1.26,0,0,1,.93-.33h5.74a6.2,6.2,0,0,1,4.22,1.3A4.61,4.61,0,0,1,470.6,326a5,5,0,0,1-.67,2.64,4.21,4.21,0,0,1-2,1.68,7.52,7.52,0,0,1-3.08.58l.21-.34h.63a2.93,2.93,0,0,1,1.67.48,4.22,4.22,0,0,1,1.28,1.54l2.07,3.84a1.63,1.63,0,0,1,.22.82.85.85,0,0,1-.28.64,1.17,1.17,0,0,1-.78.24,1.48,1.48,0,0,1-.86-.23,2.24,2.24,0,0,1-.59-.68L466,332.57a2.88,2.88,0,0,0-1.16-1.26,3.9,3.9,0,0,0-1.7-.32h-2.71v5.88a1.3,1.3,0,0,1-.32.93A1.18,1.18,0,0,1,459.13,338.14Zm1.25-9h4.1a4.26,4.26,0,0,0,2.76-.77,3.21,3.21,0,0,0,0-4.54,4.26,4.26,0,0,0-2.76-.77h-4.1Z"/><path class="cls-1" d="M479.14,338.14a1.16,1.16,0,0,1-.86-.31,1.21,1.21,0,0,1-.31-.89V322.13a1.29,1.29,0,0,1,.3-.92,1,1,0,0,1,.8-.33,1.19,1.19,0,0,1,.66.16,2.64,2.64,0,0,1,.54.56l9.89,13h-.6V322.06a1.17,1.17,0,0,1,.3-.86,1.12,1.12,0,0,1,.85-.32,1.13,1.13,0,0,1,.87.32,1.2,1.2,0,0,1,.28.86V337a1.29,1.29,0,0,1-.27.87.93.93,0,0,1-.73.31,1.36,1.36,0,0,1-.71-.17,2.21,2.21,0,0,1-.59-.57l-9.84-13h.55v12.55a1.24,1.24,0,0,1-.29.89A1.07,1.07,0,0,1,479.14,338.14Z"/><path class="cls-1" d="M500.89,338.14a1.22,1.22,0,0,1-.93-.34,1.3,1.3,0,0,1-.32-.93V322.16a1.3,1.3,0,0,1,.32-1,1.26,1.26,0,0,1,.93-.33,1.22,1.22,0,0,1,.92.33,1.26,1.26,0,0,1,.33,1v14.71a1.3,1.3,0,0,1-.32.93A1.18,1.18,0,0,1,500.89,338.14Z"/><path class="cls-1" d="M511.09,338.14a1.17,1.17,0,0,1-.87-.31,1.25,1.25,0,0,1-.31-.89V322.13a1.29,1.29,0,0,1,.3-.92,1,1,0,0,1,.81-.33,1.24,1.24,0,0,1,.66.16,2.64,2.64,0,0,1,.54.56l9.88,13h-.6V322.06a1.17,1.17,0,0,1,.3-.86,1.14,1.14,0,0,1,.86-.32,1.11,1.11,0,0,1,.86.32,1.21,1.21,0,0,1,.29.86V337a1.25,1.25,0,0,1-.28.87.92.92,0,0,1-.73.31,1.38,1.38,0,0,1-.71-.17,2.36,2.36,0,0,1-.59-.57l-9.84-13h.56v12.55a1.29,1.29,0,0,1-.29.89A1.07,1.07,0,0,1,511.09,338.14Z"/><path class="cls-1" d="M539.5,338.19a9.46,9.46,0,0,1-4.65-1.05,6.77,6.77,0,0,1-2.87-3,10.25,10.25,0,0,1-1-4.64,11,11,0,0,1,.56-3.61,7.79,7.79,0,0,1,1.63-2.73,7.08,7.08,0,0,1,2.62-1.74,9.66,9.66,0,0,1,3.52-.6,10.83,10.83,0,0,1,2.83.37,7.63,7.63,0,0,1,2.54,1.21,1,1,0,0,1,.43.55,1.16,1.16,0,0,1,0,.64,1.26,1.26,0,0,1-.32.56.9.9,0,0,1-.55.29,1.08,1.08,0,0,1-.71-.19,6.82,6.82,0,0,0-2-.95,8.17,8.17,0,0,0-2.28-.3,6.09,6.09,0,0,0-3.16.77,4.72,4.72,0,0,0-1.93,2.22,8.63,8.63,0,0,0-.65,3.51,6.94,6.94,0,0,0,1.51,4.85A5.77,5.77,0,0,0,539.6,336a10.66,10.66,0,0,0,2.12-.21,11.08,11.08,0,0,0,2-.58l-.51,1.24v-5.59h-3.09a1.09,1.09,0,0,1-.76-.25.92.92,0,0,1-.27-.71.84.84,0,0,1,.27-.68,1.19,1.19,0,0,1,.76-.23h4.15a1.07,1.07,0,0,1,.77.26,1.09,1.09,0,0,1,.26.77v6.05a1.61,1.61,0,0,1-.15.73,1,1,0,0,1-.52.45,13.34,13.34,0,0,1-2.42.66A16.09,16.09,0,0,1,539.5,338.19Z"/></g></g></svg>