<svg width="151" height="151" viewBox="0 0 151 151" fill="none" xmlns="http://www.w3.org/2000/svg">
<path d="M71.9725 18.5471C72.6173 19.44 72.9546 20.5182 72.9334 21.6194C72.9123 22.7206 72.5339 23.7851 71.8554 24.6526C67.953 29.6447 59.6796 39.6408 51.453 45.7112C41.3046 53.2112 32.0585 56.5744 27.3475 57.9455C25.2616 58.5549 23.035 57.7463 21.7811 55.9768C18.6874 51.6291 13.7655 42.3127 15.6991 29.1291C18.4296 10.3791 39.91 1.33224 53.8319 5.83224C67.7538 10.3322 71.9725 18.5471 71.9725 18.5471Z" fill="#FFC107"/>
<path d="M29.2111 54.4414C27.84 55.0156 26.5978 53.4102 27.4767 52.2266C30.0548 48.7812 35.0587 43.1328 44.1877 35.7734C54.09 27.793 61.1095 24.9688 64.9416 23.9727C66.2658 23.6328 67.2853 25.1211 66.4884 26.2344C63.8986 29.8672 58.4494 36.5 49.5314 42.8633C40.883 49.0391 33.547 52.6133 29.2111 54.4414Z" fill="url(#paint0_radial_418_1267)"/>
<path d="M38.8552 10.7422C39.3943 13.0625 42.324 13.8711 45.1599 13.3906C48.2302 12.875 52.0974 12.4414 51.7341 9.32424C51.3591 6.10159 46.2263 6.23049 44.3279 6.33596C41.5505 6.50002 38.3747 8.69143 38.8552 10.7422Z" fill="#FFEE58"/>
<path d="M99.2306 4.85916C113.246 1.08572 133.824 5.91385 137.949 30.1951C139.52 39.4177 135.852 47.5857 133.285 51.9451C132.02 54.1013 129.547 55.2498 127.098 54.7576C122.317 53.7966 113.41 51.1131 101.481 43.6599C94.8478 39.5232 85.8243 31.4607 80.7149 26.7146C78.4064 24.5701 78.1837 20.9724 80.2579 18.5935C84.3126 13.9412 91.4493 6.95681 99.2306 4.85916Z" fill="#FFC107"/>
<path d="M86.5395 26.8671C85.8012 26.1289 86.5043 24.8867 87.5239 25.1445C92.0004 26.2695 100.262 28.789 107.598 33.3711C115.122 38.082 122.727 45.2421 126.582 49.0742C127.344 49.8242 126.594 51.0898 125.563 50.7851C120.852 49.414 112.192 46.3671 103.625 40.5898C94.9184 34.7187 89.3754 29.6914 86.5395 26.8671Z" fill="url(#paint1_radial_418_1267)"/>
<path d="M98.4569 14.3748C93.828 15.8279 92.5272 12.5584 94.9999 10.074C96.7812 8.28104 104.293 5.08182 110.808 6.4412C115.109 7.34354 116.457 13.5428 110.398 13.4607C106.273 13.4021 104.129 12.5935 98.4569 14.3748Z" fill="#FFEE58"/>
<path d="M129.43 141.184C114.84 132.008 105.067 114.137 103.285 93.3711C101.68 74.6094 106.227 55.6133 109.883 40.3555L117.383 43.7656C113.891 58.3672 111.149 75.3125 112.625 92.5625C114.149 110.41 122.305 125.621 134.422 133.238L129.43 141.184ZM71.4925 137.949L67.6253 129.406C72.2073 127.332 74.8557 121.32 73.2854 116.551C72.5237 114.219 70.8831 111.992 69.1604 109.637C67.7542 107.715 66.2893 105.723 65.094 103.437C61.9768 97.4609 61.2386 90.3125 63.0901 83.832C64.0276 80.5625 65.5159 77.668 66.969 74.8672C68.6096 71.7031 70.1448 68.7266 70.5432 65.7266C70.9065 62.9492 70.2503 60.0078 68.7268 57.6523C67.344 55.5312 65.2112 53.7031 62.9495 51.7812C61.2386 50.3164 59.4573 48.8047 57.8284 47.0234C53.9729 42.8047 52.4729 37.7773 52.4964 32.1641L59.0237 29.6914C59.0237 29.6914 60.2073 36.0664 61.8011 38.6094C63.4768 41.2695 65.9729 43.0742 68.3401 45.0898C71.012 47.375 74.469 49.2852 76.5901 52.5664C79.3089 56.7617 80.4925 62.0117 79.8362 66.9805C79.2268 71.5977 77.2229 75.4648 75.2893 79.2031C74.0003 81.6992 72.7815 84.0547 72.1018 86.4336C70.9065 90.6289 71.3753 95.2578 73.4026 99.125C74.2698 100.789 75.4534 102.406 76.719 104.129C78.805 106.977 80.9612 109.906 82.1917 113.656C85.2737 122.973 80.469 133.895 71.4925 137.949Z" fill="#03A9F4"/>
<path d="M12.8164 145.004L7.27344 137.445C42.8164 111.406 46.6016 73.2734 44.0938 53.8438L51.1719 51.6758C53.9492 73.1562 52.2383 116.129 12.8164 145.004Z" fill="#F48FB1"/>
<path d="M111.734 86.4688L112.355 86.9492C112.285 83.0937 112.473 79.2148 112.836 75.3711C109.695 72.7578 106.766 69.957 104.656 66.6758C104.598 66.582 104.551 66.4883 104.492 66.3945C103.859 70.6133 103.367 74.9258 103.133 79.2734C105.934 81.957 108.934 84.3008 111.734 86.4688Z" fill="#0076C6"/>
<path d="M135.184 112.238L126.676 108.289C128.844 103.625 127.027 97.9883 124.613 94.2734C121.473 89.4453 116.527 85.6016 111.734 81.8867C106.59 77.9023 100.766 73.3906 96.7579 67.1445C89.3868 55.6719 90.6876 41.3867 98.9962 30.5703L105.805 34.3789C99.8282 42.1719 99.3477 53.8086 104.645 62.0703C107.774 66.957 112.707 70.7656 117.477 74.4687C122.633 78.4648 128.469 82.9883 132.477 89.1523C137.305 96.5937 138.348 105.441 135.184 112.238ZM11.0352 109.004C9.27741 99.0664 16.543 93.9219 20.4454 91.1562C20.9141 90.8281 21.4883 90.418 21.8868 90.1016C21.8516 89.2695 21.2891 88.2266 20.2344 86.457C18.5001 83.5391 16.1329 79.5312 17.9493 74.4336C19.5313 70.0039 24.1251 68.5391 27.1719 66.8281C29.7735 65.3633 31.6602 63.582 32.5977 60.6055C33.6876 57.1367 32.9258 48.418 32.9258 48.418L38.6446 45.0781C38.6446 45.0781 40.4493 53.4102 40.4493 57.6523C40.4493 69.6758 33.7813 72.7461 30.9688 74.3281C29.0235 75.418 27.1837 76.4492 26.7852 77.5742C26.4923 78.3945 26.9024 79.3203 28.3087 81.6875C29.9962 84.5234 32.293 88.4258 30.793 93.4062C30.0665 95.832 28.0274 97.2851 25.8712 98.8086C22.0508 101.516 19.5899 103.578 20.2696 107.375L11.0352 109.004ZM88.4493 96.8984C84.2774 95.9023 81.4298 93.418 78.8751 91.3086L84.8516 84.0781C84.8516 84.0781 86.9727 87.2305 91.6251 88.6836L88.4493 96.8984ZM80.9258 44.1406L74.0001 40.0742L79.0157 32.1406L85.9532 36.207L80.9258 44.1406ZM98.9024 133.578L89.5626 127.777L96.7696 119.762L103.977 126.605L98.9024 133.578Z" fill="#F44336"/>
<path d="M128.477 71.0068L133.973 63.4131L142.129 69.3146L136.632 76.9084L128.477 71.0068Z" fill="#FB8C00"/>
<path d="M62.4805 67.3672L54.207 61.6484L58.5078 55.9414L66.7695 61.6602L62.4805 67.3672Z" fill="#F44336"/>
<path d="M72.4883 77.3633C72.4883 77.3633 74.082 77.3047 76.0625 77.6914C77.4922 74.8789 78.8516 71.9492 79.5547 68.6563C77.1172 68.1055 75.1602 68.375 75.1602 68.375L72.4883 77.3633Z" fill="#0076C6"/>
<path d="M83.6092 78.465C80.3396 75.676 74.8787 75.8752 74.8787 75.8752L77.5389 66.8869C77.5389 66.8869 83.5857 66.0432 87.6639 70.2971L83.6092 78.465ZM5.93848 115.707L14.4428 115.187L15.0135 124.546L6.51035 125.063L5.93848 115.707ZM51.0896 114.067L45.6873 106.403C48.0779 104.715 50.2693 102.711 52.1678 100.473L59.3162 106.543C56.8982 109.384 54.1346 111.911 51.0896 114.067Z" fill="#FB8C00"/>
<path d="M51.1602 135.723C48.3477 133.402 45.3711 131.246 42.3008 129.301L47.3164 121.379C50.7148 123.523 54.0078 125.914 57.125 128.48L51.1602 135.723Z" fill="#F44336"/>
<path d="M103.449 94.3555C103.777 98.2344 104.234 101.023 105.102 104.656L111.277 99.6992L105.266 92.1875L103.449 94.3555Z" fill="#0076C6"/>
<path d="M93.5117 100.337L102.957 92.7651L108.82 100.079L99.3746 107.651L93.5117 100.337Z" fill="#FFC107"/>
<path d="M90.2891 147.289C88.6484 144.277 86.8086 141.336 84.8164 138.547L92.4453 133.098C94.6674 136.208 96.6947 139.452 98.5156 142.813L90.2891 147.289Z" fill="#FB8C00"/>
<defs>
<radialGradient id="paint0_radial_418_1267" cx="0" cy="0" r="1" gradientUnits="userSpaceOnUse" gradientTransform="translate(46.9791 39.2492) scale(17.6977 17.6977)">
<stop offset="0.376" stop-color="#AF5700"/>
<stop offset="1" stop-color="#8F4700"/>
</radialGradient>
<radialGradient id="paint1_radial_418_1267" cx="0" cy="0" r="1" gradientUnits="userSpaceOnUse" gradientTransform="translate(106.556 37.9648) scale(24.8719 24.8719)">
<stop offset="0.376" stop-color="#AF5700"/>
<stop offset="1" stop-color="#8F4700"/>
</radialGradient>
</defs>
</svg>
