<svg width="72" height="72" viewBox="0 0 72 72" fill="none" xmlns="http://www.w3.org/2000/svg">
<rect x="1.5" y="1.5" width="68.8343" height="68.8343" rx="18.0912" stroke="#440B7F" stroke-width="3"/>
<path d="M48.6351 40.7007C45.2719 44.0476 40.4558 45.0761 36.2274 43.7537L28.5378 51.4269C27.9827 51.9983 26.8889 52.3412 26.1053 52.2269L22.5462 51.7371C21.3707 51.5738 20.2769 50.4637 20.0973 49.2882L19.6075 45.7291C19.4932 44.9455 19.8687 43.8517 20.4075 43.2966L28.0807 35.6234C26.7746 31.3786 27.7868 26.5625 31.15 23.2156C35.9661 18.3995 43.7863 18.3995 48.6188 23.2156C53.4513 28.0318 53.4513 35.8846 48.6351 40.7007Z" stroke="#440B7F" stroke-width="2.44889" stroke-miterlimit="10" stroke-linecap="round" stroke-linejoin="round"/>
<path d="M27.5746 44.8804L31.3296 48.6353" stroke="#440B7F" stroke-width="2.44889" stroke-miterlimit="10" stroke-linecap="round" stroke-linejoin="round"/>
<path d="M39.9986 34.2845C41.3511 34.2845 42.4475 33.1881 42.4475 31.8356C42.4475 30.4831 41.3511 29.3867 39.9986 29.3867C38.6462 29.3867 37.5497 30.4831 37.5497 31.8356C37.5497 33.1881 38.6462 34.2845 39.9986 34.2845Z" stroke="#440B7F" stroke-width="2.44889" stroke-linecap="round" stroke-linejoin="round"/>
</svg>
