<svg width="33" height="33" viewBox="0 0 33 33" fill="none" xmlns="http://www.w3.org/2000/svg">
<path d="M14.4994 0.333496C17.1594 0.333318 19.7656 1.08201 22.02 2.49388C24.2743 3.90576 26.0855 5.92377 27.2465 8.31699C28.4074 10.7102 28.8712 13.3819 28.5846 16.0264C28.2981 18.6708 27.2728 21.1812 25.6261 23.2702L31.7128 29.3568C32.0164 29.6712 32.1844 30.0922 32.1806 30.5292C32.1768 30.9662 32.0015 31.3842 31.6925 31.6932C31.3835 32.0022 30.9654 32.1775 30.5285 32.1813C30.0915 32.1851 29.6705 32.0171 29.3561 31.7135L23.2694 25.6268C21.4952 27.0251 19.4123 27.9788 17.1945 28.4084C14.9767 28.8379 12.6883 28.7309 10.5203 28.0962C8.35229 27.4615 6.36749 26.3175 4.73151 24.7597C3.09552 23.2019 1.85579 21.2755 1.11574 19.1411C0.375695 17.0068 0.15679 14.7264 0.477293 12.4902C0.797796 10.2541 1.64841 8.12698 2.95817 6.28642C4.26793 4.44586 5.99886 2.9452 8.00654 1.90965C10.0142 0.874103 12.2404 0.333689 14.4994 0.333496ZM14.4994 3.66683C11.6263 3.66683 8.87077 4.8082 6.83912 6.83984C4.80748 8.87148 3.66611 11.627 3.66611 14.5002C3.66611 17.3733 4.80748 20.1288 6.83912 22.1605C8.87077 24.1921 11.6263 25.3335 14.4994 25.3335C17.3726 25.3335 20.1281 24.1921 22.1598 22.1605C24.1914 20.1288 25.3328 17.3733 25.3328 14.5002C25.3328 11.627 24.1914 8.87148 22.1598 6.83984C20.1281 4.8082 17.3726 3.66683 14.4994 3.66683ZM14.4994 5.3335C16.9306 5.3335 19.2622 6.29927 20.9813 8.01835C22.7003 9.73743 23.6661 12.069 23.6661 14.5002C23.6661 16.9313 22.7003 19.2629 20.9813 20.982C19.2622 22.7011 16.9306 23.6668 14.4994 23.6668C12.0683 23.6668 9.73672 22.7011 8.01763 20.982C6.29855 19.2629 5.33278 16.9313 5.33278 14.5002C5.33278 12.069 6.29855 9.73743 8.01763 8.01835C9.73672 6.29927 12.0683 5.3335 14.4994 5.3335Z" fill="#440B7F"/>
</svg>
