<svg width="34" height="30" viewBox="0 0 34 30" fill="none" xmlns="http://www.w3.org/2000/svg">
<path d="M25.334 7.76741e-09C26.6093 -7.10362e-05 27.8365 0.487209 28.7644 1.36214C29.6923 2.23707 30.2508 3.43351 30.3257 4.70667L30.334 5V12.25L31.324 11.81C32.3473 11.355 33.5273 12.06 33.6573 13.14L33.6673 13.3333V26.6667C33.6676 27.5076 33.35 28.3176 32.7782 28.9342C32.2063 29.5509 31.4226 29.9286 30.584 29.9917L30.334 30H3.66732C2.82636 30.0003 2.01637 29.6827 1.39974 29.1108C0.783102 28.539 0.40539 27.7553 0.342318 26.9167L0.333984 26.6667V13.3333C0.333984 12.2133 1.45898 11.4217 2.49565 11.7417L2.67898 11.81L3.66732 12.25V5C3.66725 3.72465 4.15453 2.49748 5.02946 1.56957C5.90439 0.641655 7.10083 0.0831541 8.37398 0.00833353L8.66732 7.76741e-09H25.334ZM25.334 3.33333H8.66732C8.22529 3.33333 7.80137 3.50893 7.48881 3.82149C7.17625 4.13405 7.00065 4.55797 7.00065 5V13.7317L17.0007 18.1767L27.0007 13.7317V5C27.0007 4.55797 26.8251 4.13405 26.5125 3.82149C26.1999 3.50893 25.776 3.33333 25.334 3.33333ZM17.0007 8.33333C17.4254 8.3338 17.834 8.49646 18.1429 8.78808C18.4518 9.0797 18.6377 9.47826 18.6626 9.90232C18.6875 10.3264 18.5495 10.744 18.2769 11.0697C18.0042 11.3955 17.6175 11.6048 17.1957 11.655L17.0007 11.6667H13.6673C13.2425 11.6662 12.8339 11.5035 12.525 11.2119C12.2161 10.9203 12.0303 10.5217 12.0054 10.0977C11.9805 9.67361 12.1184 9.25603 12.3911 8.93028C12.6637 8.60452 13.0505 8.39517 13.4723 8.345L13.6673 8.33333H17.0007Z" fill="#440B7F"/>
</svg>
