<svg width="38" height="38" viewBox="0 0 38 38" fill="none" xmlns="http://www.w3.org/2000/svg">
<path d="M10.3981 0.430664L8.71766 0.666289L12.6383 32.3063C13.2567 32.2599 13.8882 32.2205 14.5327 32.1879L12.1159 13.6243C14.1166 13.0217 16.0958 12.3393 17.8385 10.7902C18.9924 17.8569 17.6983 25.0243 17.6528 32.0916C18.6434 32.0802 19.727 32.0909 20.6138 32.1145C20.5695 31.5739 20.0125 24.1895 22.4961 21.9291C23.9602 20.5967 28.4128 21.4175 28.4128 21.4175C29.4374 23.135 29.4334 24.3024 29.1144 26.309L31.549 26.9375C31.7419 25.8086 31.6823 22.8969 30.9978 19.3968C30.9018 19.1664 30.1814 19.0247 29.5888 18.7686C29.5745 16.3718 30.0784 14.0775 29.6101 11.6806C28.4865 10.7953 26.017 10.0401 24.0818 8.99699L23.6459 8.93746C23.0805 9.52965 22.3456 9.91871 21.5218 9.91871C20.3333 9.73895 19.4359 9.13356 18.8948 8.28988L17.9 8.15426C16.0447 9.57637 13.9891 10.598 11.8271 11.407L10.3981 0.430664ZM21.5219 1.88613C21.0367 1.88613 20.5555 2.16832 20.1508 2.75754C19.7461 3.34676 19.4662 4.22082 19.4662 5.19941C19.4662 6.17801 19.7459 7.05184 20.1508 7.64113C20.5555 8.23035 21.0367 8.51254 21.5219 8.51254C22.007 8.51254 22.4884 8.23035 22.8932 7.64113C23.2979 7.05184 23.5776 6.17793 23.5776 5.19941C23.5776 4.2209 23.2979 3.34676 22.8932 2.75754C22.4885 2.16832 22.0071 1.88613 21.5219 1.88613ZM7.58383 3.2502C7.51102 3.47426 7.44242 3.70082 7.36133 3.91856C7.0893 4.64996 6.77164 5.33551 6.35273 5.89918C5.93391 6.46277 5.37609 6.93723 4.65063 7.04004C3.57844 7.19207 3.01 7.51582 2.63055 7.96262C2.25102 8.40949 2.03047 9.05824 1.89992 9.94856C1.70055 11.3089 1.82766 13.0007 2.05383 14.7245C2.16461 14.4036 2.28203 14.0861 2.42359 13.7862C2.75211 13.0905 3.17922 12.4555 3.77781 11.988C4.37648 11.5205 5.15281 11.2474 6.02898 11.2735C6.62719 11.2913 7.09555 10.8873 7.495 10.1352C7.89 9.39145 8.1082 8.37691 8.11289 7.63754L7.58383 3.2502ZM24.2925 11.576C25.3684 12.2296 26.435 12.7854 27.7972 12.8666C28.3305 14.7307 27.9249 16.7657 27.862 18.6298C26.1348 18.2895 24.4937 17.8892 24.2977 16.8214C24.5299 14.1292 24.567 12.9808 24.2925 11.576ZM28.1078 27.5015C27.7496 29.2007 27.0905 30.8197 26.1622 32.4443C29.0434 32.6481 32.0307 32.9039 34.9295 33.6639C34.9248 32.1038 34.452 30.5018 33.6087 28.9218L28.1078 27.5015ZM18.167 33.4931C10.5512 33.5327 4.50734 34.6375 0.40625 35.7131V37.3596H37.5938V35.8799C33.0099 34.7145 26.1785 33.4513 18.167 33.493V33.4931Z" fill="white"/>
</svg>
