<svg width="61" height="68" viewBox="0 0 61 68" fill="none" xmlns="http://www.w3.org/2000/svg">
<path d="M28 0.910071C25.98 1.28674 23.6067 2.10007 19.96 3.35007L18.05 4.00007C8.02667 7.4334 3.01667 9.14674 1.76 10.9401C0.526667 12.6934 0.5 17.8334 0.5 28.0334L28 18.8667V0.910071ZM28 24.1334L0.5 33.3001V33.9701C0.5 52.7634 14.63 61.8834 23.4967 65.7567C25.1967 66.5001 26.2967 66.9801 28 67.1967V24.1334ZM33 67.2001V24.1334L60.5 33.3001V33.9701C60.5 52.7634 46.37 61.8834 37.5033 65.7567C35.8033 66.5001 34.7033 66.9834 33 67.2001ZM33 18.8667V0.906738C35.02 1.2834 37.3933 2.09674 41.04 3.34674L42.95 4.00007C52.9733 7.43007 57.9833 9.1434 59.24 10.9367C60.4733 12.6901 60.5 17.8301 60.5 28.0267L33 18.8667Z" fill="#F48FB1"/>
</svg>
