<svg width="26" height="25" viewBox="0 0 26 25" fill="none" xmlns="http://www.w3.org/2000/svg">
<path d="M20.0312 6.25C20.0312 6.0428 19.9489 5.84409 19.8024 5.69757C19.6559 5.55106 19.4572 5.46875 19.25 5.46875C19.0428 5.46875 18.8441 5.55106 18.6976 5.69757C18.5511 5.84409 18.4688 6.0428 18.4688 6.25V11.325L8.67656 5.64375C7.83281 5.15625 6.75 5.74688 6.75 6.73125V18.2688C6.75 19.2531 7.83125 19.8469 8.67656 19.3578L18.4688 13.6766V18.75C18.4688 18.9572 18.5511 19.1559 18.6976 19.3024C18.8441 19.4489 19.0428 19.5312 19.25 19.5312C19.4572 19.5312 19.6559 19.4489 19.8024 19.3024C19.9489 19.1559 20.0312 18.9572 20.0312 18.75V6.25Z" fill="black"/>
</svg>
