<svg width="40" height="40" viewBox="0 0 40 40" fill="none" xmlns="http://www.w3.org/2000/svg">
<path d="M13.2734 1.54355C8.57812 1.51542 4.37578 2.50839 2.06016 4.70292C1.91875 4.83652 1.78203 4.96777 1.64844 5.09746V38.4295H4.45469C3.12344 34.9685 2.51484 30.992 2.67812 27.9529C3.92344 30.8514 5.01172 35.1248 7.16563 38.4295H11.7109C9.49219 35.6092 7.42891 32.1639 5.75859 29.0935C5.25312 28.1639 4.82266 27.2029 4.46797 26.0389C6.31875 29.7576 12.1484 35.3592 15.75 38.4295H19.4922C18.0234 37.242 17.125 35.8201 16.4375 34.5779C18.2422 36.1639 20.3359 37.4373 22.6953 38.4295H28.2109C27.6719 38.2654 27.1094 38.0936 26.5234 37.8982C20.2266 35.8201 13.1641 30.4764 9.71875 26.9217C9.42188 26.6248 9.21875 26.2654 9.15625 25.8826C9.09375 25.492 9.1875 25.1014 9.36719 24.7889C9.72656 24.1717 10.3359 23.781 11.0312 23.4842C11.7266 23.1873 12.5312 22.9842 13.3281 22.9451C14.125 22.9061 14.9219 23.0389 15.6016 23.406C15.7578 23.492 15.9141 23.5779 16.0781 23.6639C13.2734 16.6248 16.1172 10.4607 26.7812 11.1248C26.0859 10.7498 25.3984 10.4139 24.7344 10.1092L17.1562 11.0076C17.1562 11.0076 20.5156 9.60136 22.0391 9.05449C21.4688 8.8748 20.9219 8.71074 20.3828 8.58574C15.1094 9.38261 9.44531 14.0076 7.55156 19.0623C7.26563 16.9764 7.63906 11.4685 15.2969 8.10136C12.0938 8.34355 9.60938 9.67167 7.83594 11.6404C5.55781 14.1717 3.61953 17.867 3.47891 21.492C3.03047 17.3514 4.07891 13.406 6.79531 10.7107C9.78125 7.74902 13.2812 6.58496 16.7656 6.67558C20.5859 6.78105 25.1016 8.24199 28.5469 10.781C31.9922 13.3123 33.0156 15.2498 34.2266 16.2264C34.3672 14.9295 33.8359 13.5076 32.8828 12.0779C33.9922 12.3436 35.1484 12.6482 36.375 13.0232C35.7266 10.4685 33.7969 8.27324 31.1406 6.50761C32.9531 6.85527 34.3984 7.11464 34.6719 6.54589C33.4375 4.76855 29.7031 2.51855 24.5234 3.39746C20.9141 2.21386 16.9453 1.56621 13.2734 1.54355ZM28.5312 14.8357C28.1719 14.8279 27.8203 15.0076 27.5156 15.3904C27.2031 15.7732 26.9844 16.3514 26.9688 17.0076C26.9531 17.656 27.1406 18.242 27.4297 18.6404C27.7188 19.0389 28.0625 19.2342 28.4219 19.242C28.7812 19.2498 29.1406 19.0779 29.4453 18.6951C29.75 18.3123 29.9687 17.7342 29.9844 17.0779C30.0078 16.4217 29.8125 15.8435 29.5234 15.4451C29.2422 15.0467 28.8906 14.8514 28.5312 14.8357ZM22.2969 17.2107C20.7422 17.4139 19.3672 18.0623 17.8359 18.6795L18.3125 19.9295L22.1484 18.7498L25.0156 19.617L22.9922 24.0467C21.6016 23.7029 20.4375 23.5701 18.8594 23.6092L17.1484 27.9061L18.4531 28.8592L20.0078 25.4842L24.0078 25.867L26.3828 29.492L25.9219 33.031L27.375 33.6639L28.125 29.5701C27.8125 28.3592 27.2266 26.9217 26.4219 25.6873L28.6328 21.6717L31.4687 24.1795L31.625 27.6014L32.9688 27.6873C33.0312 26.3904 33.1562 25.1717 32.9297 24.0935C32.6797 22.906 31.4844 21.2498 30.1016 20.0154C29.625 20.4061 29.0312 20.6561 28.3906 20.6404C27.5312 20.617 26.7812 20.1326 26.2969 19.4607C25.9766 19.0154 25.7578 18.4842 25.6484 17.906C24.5781 17.5779 23.6641 17.2498 22.2969 17.2107ZM13.6094 24.3826C13.5391 24.3826 13.4609 24.3904 13.3828 24.3904C12.7656 24.4217 12.1094 24.5467 11.5781 24.7732C11.0547 24.9998 10.6797 25.3123 10.5781 25.4842C10.5312 25.5779 10.5312 25.6092 10.5391 25.656C10.5469 25.7107 10.5781 25.7967 10.7188 25.9529C13.9766 29.3123 21.0547 34.617 26.9609 36.5701C31.8438 38.1951 34.7812 38.4685 36.375 38.2264C37.1719 38.1014 37.6172 37.8592 37.8516 37.6404C38.0391 37.4685 38.1016 37.3123 38.1328 37.1639C38.0547 37.0779 37.9219 36.9607 37.7188 36.8045C37.2969 36.4842 36.6328 36.0545 35.8125 35.5623C34.1719 34.5857 31.875 33.3514 29.3594 32.0467C29.2812 32.0076 29.1953 31.9607 29.1172 31.9217L28.4375 35.6326L24.3906 33.9061L24.9297 29.8201L24.8906 29.7576C23.4219 29.0154 21.9688 28.281 20.5859 27.5779L19.0156 30.9842L15.4453 28.406L16.5937 25.5232C16 25.2107 15.4297 24.9139 14.9297 24.6404C14.625 24.4685 14.1406 24.3904 13.6094 24.3826Z" fill="white"/>
</svg>
