<svg width="40" height="40" viewBox="0 0 40 40" fill="none" xmlns="http://www.w3.org/2000/svg">
<path d="M25.2483 15.6489C25.2483 15.6489 22.5566 23.2339 21.2783 24.5581C20.6612 25.1804 19.8238 25.5346 18.9474 25.544C18.0711 25.5535 17.2262 25.2174 16.5958 24.6086C15.9654 23.9998 15.6002 23.1672 15.5791 22.291C15.558 21.4149 15.8829 20.5657 16.4833 19.9273C17.7616 18.6023 25.2483 15.6489 25.2483 15.6489Z" fill="white" stroke="white" stroke-width="4" stroke-linejoin="round"/>
<path d="M32.375 32.375C34.0022 30.7515 35.2926 28.8225 36.1721 26.6988C37.0516 24.5751 37.5029 22.2986 37.5 20C37.5 10.335 29.665 2.5 20 2.5C10.335 2.5 2.5 10.335 2.5 20C2.5 24.8325 4.45833 29.2075 7.625 32.375M20 3.33333V6.66667M32.3708 9.285L29.7808 11.3825M35.435 22.6942L32.1875 21.9442M4.56417 22.6942L7.8125 21.9442M7.62917 9.285L10.2192 11.3825" stroke="white" stroke-width="4" stroke-linecap="round" stroke-linejoin="round"/>
</svg>
