<svg width="29" height="29" viewBox="0 0 29 29" fill="none" xmlns="http://www.w3.org/2000/svg">
<path fill-rule="evenodd" clip-rule="evenodd" d="M23.4238 0.499934C24.155 0.499934 24.7494 1.09431 24.7494 1.82556V4.24993H27.1738C27.436 4.24988 27.6924 4.32759 27.9104 4.47325C28.1285 4.61891 28.2984 4.82597 28.3988 5.06823C28.4991 5.31049 28.5254 5.57707 28.4742 5.83425C28.423 6.09144 28.2967 6.32767 28.1113 6.51306L25.3738 9.25056C24.9741 9.64938 24.4328 9.87384 23.8682 9.87494H21.1119L14.4932 16.4937C14.2266 16.7421 13.874 16.8773 13.5097 16.8709C13.1454 16.8645 12.7978 16.7169 12.5401 16.4592C12.2825 16.2016 12.1349 15.854 12.1285 15.4897C12.122 15.1253 12.2573 14.7728 12.5057 14.5062L19.1244 7.88743V5.13118C19.1244 4.56681 19.3494 4.02493 19.7488 3.62368L22.4863 0.886184C22.609 0.762511 22.7551 0.6645 22.916 0.597863C23.077 0.531227 23.2496 0.4973 23.4238 0.498059M3.18692 15.4999C3.18672 13.9709 3.52652 12.461 4.18172 11.0795C4.83691 9.69804 5.79111 8.47952 6.97522 7.5122C8.15933 6.54488 9.54373 5.85298 11.0282 5.48657C12.5126 5.12017 14.06 5.08844 15.5582 5.39368C15.9218 5.46306 16.2981 5.38628 16.6054 5.17999C16.9128 4.97369 17.1264 4.65454 17.2 4.29175C17.2735 3.92896 17.201 3.55181 16.9983 3.24211C16.7955 2.9324 16.4788 2.71514 16.1169 2.63743C13.3525 2.07541 10.4807 2.41898 7.92686 3.61722C5.37307 4.81547 3.27329 6.80462 1.93872 9.28989C0.604141 11.7752 0.105792 14.6243 0.517525 17.415C0.929259 20.2057 2.22916 22.7895 4.22459 24.7835C6.22002 26.7774 8.80478 28.0755 11.5958 28.4851C14.3868 28.8948 17.2356 28.3944 19.7199 27.058C22.2041 25.7216 24.1918 23.6204 25.3881 21.0657C26.5845 18.511 26.926 15.6389 26.3619 12.8749C26.2876 12.5094 26.0711 12.1884 25.7601 11.9826C25.449 11.7767 25.069 11.7028 24.7035 11.7771C24.338 11.8515 24.017 12.068 23.8111 12.379C23.6052 12.69 23.5313 13.0701 23.6057 13.4356C23.7419 14.1018 23.8107 14.7899 23.8119 15.4999C23.8119 18.235 22.7254 20.858 20.7915 22.792C18.8575 24.7259 16.2345 25.8124 13.4994 25.8124C10.7644 25.8124 8.14135 24.7259 6.20738 22.792C4.27341 20.858 3.18692 18.235 3.18692 15.4999ZM13.2444 10.8199C13.6169 10.8 13.9662 10.633 14.2155 10.3556C14.4648 10.0781 14.5937 9.71302 14.5738 9.34056C14.5539 8.9681 14.3869 8.61879 14.1094 8.36948C13.832 8.12018 13.4669 7.99129 13.0944 8.01118C11.6543 8.0888 10.2671 8.57999 9.09896 9.42591C7.93087 10.2718 7.03146 11.4366 6.50848 12.7807C5.9855 14.1248 5.86114 15.5911 6.15031 17.0041C6.43947 18.417 7.12989 19.7166 8.13885 20.7472C9.1478 21.7777 10.4325 22.4955 11.839 22.8145C13.2455 23.1336 14.7142 23.0403 16.069 22.5459C17.4238 22.0515 18.6074 21.1769 19.4779 20.027C20.3484 18.8771 20.8688 17.5006 20.9769 16.0624C21.0045 15.6905 20.8832 15.3228 20.6397 15.0402C20.3962 14.7577 20.0504 14.5835 19.6785 14.5559C19.3065 14.5283 18.9388 14.6496 18.6563 14.8931C18.3738 15.1366 18.1995 15.4823 18.1719 15.8543C18.1035 16.7527 17.7777 17.6123 17.2334 18.3303C16.6891 19.0483 15.9494 19.5942 15.1028 19.9027C14.2563 20.2112 13.3388 20.2691 12.4602 20.0697C11.5815 19.8702 10.779 19.4217 10.1487 18.778C9.5183 18.1342 9.08684 17.3224 8.90592 16.4398C8.725 15.5571 8.80228 14.641 9.12852 13.8012C9.45476 12.9613 10.0161 12.2333 10.7454 11.7042C11.4747 11.1752 12.341 10.8675 13.2407 10.8181" fill="#34A853"/>
</svg>
