<svg width="31" height="31" viewBox="0 0 31 31" fill="none" xmlns="http://www.w3.org/2000/svg">
<g clip-path="url(#clip0_420_1814)">
<path fill-rule="evenodd" clip-rule="evenodd" d="M25.4257 0.499934C26.157 0.499934 26.7514 1.09431 26.7514 1.82556V4.24993H29.1757C29.438 4.24988 29.6943 4.32759 29.9124 4.47325C30.1304 4.61891 30.3004 4.82597 30.4007 5.06823C30.5011 5.31049 30.5273 5.57707 30.4762 5.83425C30.425 6.09144 30.2987 6.32767 30.1132 6.51306L27.3757 9.25056C26.976 9.64938 26.4348 9.87384 25.8701 9.87494H23.1139L16.4951 16.4937C16.2285 16.7421 15.876 16.8773 15.5116 16.8709C15.1473 16.8645 14.7997 16.7169 14.5421 16.4592C14.2844 16.2016 14.1368 15.854 14.1304 15.4897C14.124 15.1253 14.2592 14.7728 14.5076 14.5062L21.1264 7.88743V5.13118C21.1264 4.56681 21.3514 4.02493 21.7507 3.62368L24.4882 0.886184C24.6109 0.762511 24.757 0.6645 24.918 0.597863C25.0789 0.531227 25.2515 0.4973 25.4257 0.498059M5.18887 15.4999C5.18867 13.9709 5.52847 12.461 6.18367 11.0795C6.83887 9.69804 7.79306 8.47952 8.97717 7.5122C10.1613 6.54488 11.5457 5.85298 13.0301 5.48657C14.5146 5.12017 16.0619 5.08844 17.5601 5.39368C17.9237 5.46306 18.3 5.38628 18.6074 5.17999C18.9147 4.97369 19.1284 4.65454 19.2019 4.29175C19.2754 3.92896 19.203 3.55181 19.0002 3.24211C18.7975 2.9324 18.4808 2.71514 18.1189 2.63743C15.3545 2.07541 12.4826 2.41898 9.92882 3.61722C7.37503 4.81547 5.27525 6.80462 3.94067 9.28989C2.60609 11.7752 2.10774 14.6243 2.51948 17.415C2.93121 20.2057 4.23112 22.7895 6.22654 24.7835C8.22197 26.7774 10.8067 28.0755 13.5977 28.4851C16.3888 28.8948 19.2375 28.3944 21.7218 27.058C24.2061 25.7216 26.1937 23.6204 27.3901 21.0657C28.5865 18.511 28.9279 15.6389 28.3639 12.8749C28.2895 12.5094 28.073 12.1884 27.762 11.9826C27.451 11.7767 27.0709 11.7028 26.7054 11.7771C26.3399 11.8515 26.0189 12.068 25.8131 12.379C25.6072 12.69 25.5333 13.0701 25.6076 13.4356C25.7439 14.1018 25.8126 14.7899 25.8139 15.4999C25.8139 18.235 24.7274 20.858 22.7934 22.792C20.8594 24.7259 18.2364 25.8124 15.5014 25.8124C12.7663 25.8124 10.1433 24.7259 8.20933 22.792C6.27536 20.858 5.18887 18.235 5.18887 15.4999ZM15.2464 10.8199C15.6188 10.8 15.9681 10.633 16.2174 10.3556C16.4668 10.0781 16.5956 9.71302 16.5757 9.34056C16.5559 8.9681 16.3888 8.61879 16.1114 8.36948C15.8339 8.12018 15.4688 7.99129 15.0964 8.01118C13.6562 8.0888 12.269 8.57999 11.1009 9.42591C9.93283 10.2718 9.03341 11.4366 8.51043 12.7807C7.98745 14.1248 7.8631 15.5911 8.15226 17.0041C8.44143 18.417 9.13185 19.7166 10.1408 20.7472C11.1498 21.7777 12.4344 22.4955 13.841 22.8145C15.2475 23.1336 16.7161 23.0403 18.071 22.5459C19.4258 22.0515 20.6094 21.1769 21.4798 20.027C22.3503 18.8771 22.8708 17.5006 22.9789 16.0624C23.0065 15.6905 22.8852 15.3228 22.6417 15.0402C22.3982 14.7577 22.0524 14.5835 21.6804 14.5559C21.3085 14.5283 20.9408 14.6496 20.6582 14.8931C20.3757 15.1366 20.2015 15.4823 20.1739 15.8543C20.1055 16.7527 19.7796 17.6123 19.2353 18.3303C18.691 19.0483 17.9513 19.5942 17.1048 19.9027C16.2582 20.2112 15.3407 20.2691 14.4621 20.0697C13.5835 19.8702 12.781 19.4217 12.1506 18.778C11.5203 18.1342 11.0888 17.3224 10.9079 16.4398C10.727 15.5571 10.8042 14.641 11.1305 13.8012C11.4567 12.9613 12.0181 12.2333 12.7474 11.7042C13.4767 11.1752 14.343 10.8675 15.2426 10.8181" fill="#34A853"/>
</g>
<defs>
<clipPath id="clip0_420_1814">
<rect width="30" height="30" fill="white" transform="translate(0.5 0.5)"/>
</clipPath>
</defs>
</svg>
