<svg width="68" height="74" viewBox="0 0 68 74" fill="none" xmlns="http://www.w3.org/2000/svg">
<path d="M40.5 7.00016H20.5V0.333496H40.5V7.00016ZM33.8333 60.3335C33.8333 63.7668 34.7 67.0002 36.2 69.7668C34.3667 70.1335 32.4667 70.3335 30.5 70.3335C22.5435 70.3335 14.9129 67.1728 9.2868 61.5467C3.66071 55.9206 0.5 48.29 0.5 40.3335C0.5 32.377 3.66071 24.7464 9.2868 19.1203C14.9129 13.4942 22.5435 10.3335 30.5 10.3335C37.5667 10.3335 44.0667 12.8002 49.2333 17.0002L53.9667 12.2002C55.6667 13.6668 57.1667 15.2002 58.6667 16.9002L53.9333 21.6335C58.1869 26.9377 60.5034 33.5344 60.5 40.3335V41.5002C58.3667 40.7668 56.1667 40.3335 53.8333 40.3335C42.8 40.3335 33.8333 49.3002 33.8333 60.3335ZM33.8333 20.3335H27.1667V43.6668H33.8333V20.3335ZM57.1667 57.0002V47.0002H50.5V57.0002H40.5V63.6668H50.5V73.6668H57.1667V63.6668H67.1667V57.0002H57.1667Z" fill="#9747FF"/>
</svg>
