<svg width="67" height="68" viewBox="0 0 67 68" fill="none" xmlns="http://www.w3.org/2000/svg">
<path fill-rule="evenodd" clip-rule="evenodd" d="M35.2893 8.78003V0.693359C52.866 1.63336 66.8327 16.1867 66.8327 34C66.8327 51.8134 52.866 66.3634 35.2893 67.3067V59.22C48.3893 58.2834 58.766 47.3334 58.766 34C58.766 20.6667 48.3893 9.71669 35.2893 8.78003ZM14.366 50.54C10.7899 46.4227 8.64588 41.2563 8.25602 35.8167H0.166016C0.572234 43.4006 3.5638 50.6166 8.64268 56.2634L14.366 50.54ZM31.656 67.3067V59.22C26.2131 58.833 21.0434 56.6875 16.926 53.1067L11.206 58.8334C16.8518 63.9133 24.0719 66.9041 31.656 67.3067Z" fill="#AF5700"/>
</svg>
