<svg width="68" height="68" viewBox="0 0 68 68" fill="none" xmlns="http://www.w3.org/2000/svg">
<path d="M50.5 40.6665H57.1667V50.6665H67.1667V57.3332H57.1667V67.3332H50.5V57.3332H40.5V50.6665H50.5V40.6665ZM10.5 67.3332C4.96667 67.3332 0.5 62.8665 0.5 57.3332C0.5 55.3332 1.1 53.4665 2.16667 51.8665L20.5 20.0332V13.9998C18.6667 13.9998 17.1667 12.4998 17.1667 10.6665V7.33317C17.1667 3.6665 20.1667 0.666504 23.8333 0.666504H37.1667C38.9348 0.666504 40.6305 1.36888 41.8807 2.61913C43.131 3.86937 43.8333 5.56506 43.8333 7.33317V10.6665C43.8333 12.4998 42.3333 13.9998 40.5 13.9998V20.0332L48.8333 34.5998C40.2333 36.7998 33.8333 44.6665 33.8333 53.9998C33.8333 59.1332 35.7667 63.7998 38.9333 67.3332H10.5Z" fill="#FBBC05"/>
</svg>
